<svg width="593" height="631" viewBox="0 0 593 631" fill="none" xmlns="http://www.w3.org/2000/svg">
<rect width="593" height="631" fill="white"/>
<path fill-rule="evenodd" clip-rule="evenodd" d="M296.5 157.755C252.04 102.621 177.746 85.582 122.04 136.068C66.334 186.555 58.4913 270.965 102.238 330.676C138.61 380.319 248.684 485.026 284.761 518.916C288.796 522.707 290.815 524.603 293.169 525.347C295.223 525.996 297.471 525.996 299.527 525.347C301.881 524.603 303.898 522.707 307.935 518.916C344.012 485.026 454.085 380.319 490.458 330.676C534.204 270.965 527.318 186.024 470.654 136.068C413.991 86.1131 340.96 102.621 296.5 157.755Z" stroke="#F2849E" stroke-width="66.6667" stroke-linecap="round" stroke-linejoin="round"/>
</svg>
